D:\school\WTK\thesis\model\3dpredictsim\Results\Batchsim_tmt_linear_v2\Pog_s1_tmt_bCst_d00_k1000_ig24_act_GRF.mot
nRows=20
nColumns=19

name D:\school\WTK\thesis\model\3dpredictsim\Results\Batchsim_tmt_linear_v2\Pog_s1_tmt_bCst_d00_k1000_ig24_act_GRF.mot
datacolumns 19
datarows 20
range 0.6616303475 0.9130498796
endheader
time 	ground_force_vx	ground_force_vy	ground_force_vz	ground_force_px	ground_force_py	ground_force_pz	1_ground_force_vx	1_ground_force_vy	1_ground_force_vz	1_ground_force_px	1_ground_force_py	1_ground_force_pz	ground_torque_x	ground_torque_y	ground_torque_z	1_ground_torque_x	1_ground_torque_y	1_ground_torque_z
        0.6616303475	       84.1092390580	      344.7875938063	       -3.7305778016	        0.4469342589	        0.0000000000	        0.0432162148	      -27.7341561592	       21.6824902679	       -2.1926151057	        1.0631952877	        0.0000000000	       -0.0533729772	        0.0000000000	        0.0000000000	        0.0000000000	        0.0000000000	        0.0000000000	        0.0000000000	
        0.6748629545	       30.7285160189	      222.7590841728	        9.3513405577	        0.4875097760	        0.0000000000	        0.0399208162	     -121.4132798101	      116.5344093907	       -9.6006126518	        1.0715296467	        0.0000000000	       -0.0526685961	        0.0000000000	        0.0000000000	        0.0000000000	        0.0000000000	        0.0000000000	        0.0000000000	
        0.6880955614	       25.9732805608	      192.7594681115	        9.2518793556	        0.4886000008	        0.0000000000	        0.0395199029	      -89.4058393589	      367.4025570005	        1.2141788091	        1.0771933745	        0.0000000000	       -0.0520948244	        0.0000000000	        0.0000000000	        0.0000000000	        0.0000000000	        0.0000000000	        0.0000000000	
        0.7013281684	       24.6302509051	      151.1500052628	       11.1353649650	        0.4891528401	        0.0000000000	        0.0397613605	     -110.4234749838	      619.2528929322	       10.9744633401	        1.0800453838	        0.0000000000	       -0.0521450641	        0.0000000000	        0.0000000000	        0.0000000000	        0.0000000000	        0.0000000000	        0.0000000000	
        0.7145607753	       18.4773913279	       98.5627645383	       13.4858385925	        0.4897418716	        0.0000000000	        0.0402411054	     -172.7447007673	      846.1802789466	       19.4162411670	        1.0895348963	        0.0000000000	       -0.0540829355	        0.0000000000	        0.0000000000	        0.0000000000	        0.0000000000	        0.0000000000	        0.0000000000	
        0.7277933823	        2.2768734586	       38.1689142034	        7.4448935028	        0.4893072889	        0.0000000000	        0.0403970460	     -213.2709400100	      972.0315963578	       22.9074007399	        1.0998176247	        0.0000000000	       -0.0563169313	        0.0000000000	        0.0000000000	        0.0000000000	        0.0000000000	        0.0000000000	        0.0000000000	
        0.7410259892	        0.4687674175	       -0.4549098896	        0.0069989619	        0.0000000000	        0.0000000000	        0.0000000000	     -203.6676903157	      950.8168096115	       22.0696326541	        1.1067383749	        0.0000000000	       -0.0576466832	        0.0000000000	        0.0000000000	        0.0000000000	        0.0000000000	        0.0000000000	        0.0000000000	
        0.7542585962	        0.4422524607	       -0.3341331262	        0.0369062977	        0.0000000000	        0.0000000000	        0.0000000000	     -172.7589369956	      862.8279934567	       19.4046075064	        1.1118539488	        0.0000000000	       -0.0585167686	        0.0000000000	        0.0000000000	        0.0000000000	        0.0000000000	        0.0000000000	        0.0000000000	
        0.7674912031	       -4.6207719918	        2.9929897501	       -0.4121537018	        0.0000000000	        0.0000000000	        0.0000000000	     -149.6404258639	      783.5095215434	       16.4770768453	        1.1160233270	        0.0000000000	       -0.0591055054	        0.0000000000	        0.0000000000	        0.0000000000	        0.0000000000	        0.0000000000	        0.0000000000	
        0.7807238101	       -3.3497283778	        1.9377732707	       -0.2880771038	        0.0000000000	        0.0000000000	        0.0000000000	     -130.3177042440	      737.8624821828	       14.5723144792	        1.1200807811	        0.0000000000	       -0.0594650657	        0.0000000000	        0.0000000000	        0.0000000000	        0.0000000000	        0.0000000000	        0.0000000000	
        0.7939564170	       -2.6482773185	        1.4070390055	       -0.2077446579	        0.0000000000	        0.0000000000	        0.0000000000	     -116.8861802044	      715.4933412335	       14.5721927850	        1.1252649981	        0.0000000000	       -0.0597494020	        0.0000000000	        0.0000000000	        0.0000000000	        0.0000000000	        0.0000000000	        0.0000000000	
        0.8071890240	       -2.0045067423	        1.0000297528	       -0.1384960407	        0.0000000000	        0.0000000000	        0.0000000000	     -107.1843833349	      700.4021701065	       14.4479594635	        1.1314455181	        0.0000000000	       -0.0595905645	        0.0000000000	        0.0000000000	        0.0000000000	        0.0000000000	        0.0000000000	        0.0000000000	
        0.8204216309	       -1.4768597908	        0.7069916850	       -0.0817896698	        0.0000000000	        0.0000000000	        0.0000000000	      -97.2677693990	      678.4719852004	       14.3780073710	        1.1371615051	        0.0000000000	       -0.0593455346	        0.0000000000	        0.0000000000	        0.0000000000	        0.0000000000	        0.0000000000	        0.0000000000	
        0.8336542379	       -1.1557560095	        0.5350240778	       -0.0494525503	        0.0000000000	        0.0000000000	        0.0000000000	      -88.0599012584	      655.6774137349	       14.3196438301	        1.1424299659	        0.0000000000	       -0.0590499748	        0.0000000000	        0.0000000000	        0.0000000000	        0.0000000000	        0.0000000000	        0.0000000000	
        0.8468868448	       -0.9938977789	        0.4479083036	       -0.0316392781	        0.0000000000	        0.0000000000	        0.0000000000	      -79.8632126274	      635.5375270572	       14.7964578507	        1.1473606558	        0.0000000000	       -0.0586987398	        0.0000000000	        0.0000000000	        0.0000000000	        0.0000000000	        0.0000000000	        0.0000000000	
        0.8601194518	       -0.9273412098	        0.4083869900	       -0.0207041847	        0.0000000000	        0.0000000000	        0.0000000000	      -72.1212067219	      618.4939541658	       15.4792954321	        1.1518989932	        0.0000000000	       -0.0583693279	        0.0000000000	        0.0000000000	        0.0000000000	        0.0000000000	        0.0000000000	        0.0000000000	
        0.8733520587	       -0.9285248122	        0.4006267536	       -0.0135688775	        0.0000000000	        0.0000000000	        0.0000000000	      -64.6345093267	      604.1634024749	       16.3879926644	        1.1561279982	        0.0000000000	       -0.0580533324	        0.0000000000	        0.0000000000	        0.0000000000	        0.0000000000	        0.0000000000	        0.0000000000	
        0.8865846657	       -1.0007541385	        0.4233939729	       -0.0088587464	        0.0000000000	        0.0000000000	        0.0000000000	      -57.6281570530	      591.7199598979	       17.3347252381	        1.1600464336	        0.0000000000	       -0.0577413004	        0.0000000000	        0.0000000000	        0.0000000000	        0.0000000000	        0.0000000000	        0.0000000000	
        0.8998172726	       -1.1354077177	        0.4716770281	       -0.0051778215	        0.0000000000	        0.0000000000	        0.0000000000	      -51.3455901076	      581.2303660508	       18.1405645615	        1.1636617150	        0.0000000000	       -0.0574331891	        0.0000000000	        0.0000000000	        0.0000000000	        0.0000000000	        0.0000000000	        0.0000000000	
        0.9130498796	       -1.3126167842	        0.5364204908	       -0.0015540361	        0.0000000000	        0.0000000000	        0.0000000000	      -45.6188763845	      571.8657565564	       18.6918284691	        1.1669270577	        0.0000000000	       -0.0571326477	        0.0000000000	        0.0000000000	        0.0000000000	        0.0000000000	        0.0000000000	        0.0000000000	
